<svg width="32" height="32" viewBox="0 0 32 32" fill="none" xmlns="http://www.w3.org/2000/svg">
<path fill-rule="evenodd" clip-rule="evenodd" d="M7 12C4.828 12 3 13.828 3 16C3 18.172 4.828 20 7 20C8.05 20 9.244 19.512 10.65 18.546C11.67 17.846 12.7 16.966 13.772 16C12.7 15.034 11.668 14.156 10.652 13.454C9.242 12.488 8.05 12 7 12ZM16 13.968C14.82 12.902 13.592 11.836 12.35 10.982C10.756 9.886 8.95 9 7 9C3.172 9 0 12.172 0 16C0 19.828 3.172 23 7 23C8.95 23 10.756 22.112 12.35 21.018C13.592 20.164 14.82 19.098 16 18.032C17.18 19.098 18.408 20.164 19.65 21.018C21.244 22.112 23.05 23 25 23C28.828 23 32 19.828 32 16C32 12.172 28.828 9 25 9C23.05 9 21.244 9.886 19.65 10.982C18.408 11.836 17.18 12.902 16 13.968ZM18.228 16C19.3 16.966 20.332 17.844 21.348 18.546C22.756 19.512 23.948 20 25 20C27.172 20 29 18.172 29 16C29 13.828 27.172 12 25 12C23.95 12 22.756 12.488 21.35 13.454C20.33 14.154 19.3 15.034 18.228 16Z" fill="url(#paint0_linear)"/>
<defs>
<linearGradient id="paint0_linear" x1="15.4776" y1="2.68565" x2="5.53134" y2="25.42" gradientUnits="userSpaceOnUse">
<stop stop-color="#1182C5"/>
<stop offset="1" stop-color="#1D3E82"/>
</linearGradient>
</defs>
</svg>
