<svg width="103" height="98" viewBox="0 0 103 98" fill="none" xmlns="http://www.w3.org/2000/svg">
<path d="M10.3 98H15.45V30.9474H10.3C7.56827 30.9474 4.94842 32.0342 3.0168 33.9688C1.08518 35.9034 0 38.5272 0 41.2632V87.6842C0 90.4201 1.08518 93.044 3.0168 94.9786C4.94842 96.9132 7.56827 98 10.3 98ZM92.7 30.9474H56.65L62.4283 13.5756C62.9439 12.0252 63.0843 10.3743 62.8381 8.7589C62.5919 7.1435 61.9659 5.6098 61.0119 4.28412C60.0579 2.95844 58.8031 1.87872 57.3508 1.13389C55.8985 0.389057 54.2904 0.000423529 52.6588 0H51.5L25.75 28.0486V98H82.4L102.547 53.6627L103 51.5789V41.2632C103 38.5272 101.915 35.9034 99.9832 33.9688C98.0516 32.0342 95.4317 30.9474 92.7 30.9474Z" fill="white"/>
</svg>
