<svg width="284" height="45" viewBox="0 0 284 45" fill="none" xmlns="http://www.w3.org/2000/svg">
<g clip-path="url(#clip0)">
<path d="M77.6851 44.4569V37.2433H81.8517V37.6555H78.0554V44.4569H77.6851Z" fill="white"/>
<path d="M85 44.4569V37.2433H87.6852C88.9815 37.2433 89.7222 38.0677 89.7222 39.2013C89.7222 40.3348 88.9815 41.1593 87.6852 41.1593H85.463V44.4569H85ZM85.463 40.644H87.6852C88.7037 40.644 89.2593 40.1287 89.2593 39.0982C89.2593 38.1708 88.7037 37.6555 87.6852 37.6555H85.463V40.644Z" fill="white"/>
<path d="M92.8705 44.4569V44.0447C93.0557 44.1477 93.3335 44.1477 93.5186 44.1477C94.0742 44.1477 94.4446 43.6325 94.9075 42.602V42.4989L92.3149 37.2433H92.7779L95.1853 41.9837L97.1298 37.2433H97.5927L95.1853 42.9111C94.7224 44.1477 94.2594 44.5599 93.6112 44.5599C93.3335 44.5599 93.0557 44.5599 92.8705 44.4569Z" fill="white"/>
<path d="M100.741 44.4569V37.2433H105.648V44.4569H105.185V37.6555H101.111V44.4569H100.741Z" fill="white"/>
<path d="M109.444 44.4569V37.2433H114.444V44.4569H113.981V37.6555H109.907V44.4569H109.444Z" fill="white"/>
<path d="M117.593 44.4569L120.556 37.2433H120.926L123.889 44.4569H123.426L122.593 42.2928H118.982L118.148 44.4569H117.593ZM118.982 41.8806H122.315L120.648 37.7586L118.982 41.8806Z" fill="white"/>
<path d="M131.296 44.4569V37.2433H131.667V40.4379L135 37.2433H135.556L132.222 40.5409L136.111 44.4569H135.463L131.667 40.747V44.4569H131.296Z" fill="white"/>
<path d="M139.259 43.5294C138.611 42.8081 138.333 41.9837 138.333 40.8501C138.333 39.8196 138.611 38.8922 139.259 38.1708C139.908 37.4494 140.648 37.1403 141.574 37.1403C142.5 37.1403 143.241 37.5525 143.889 38.1708C144.537 38.8922 144.815 39.8196 144.815 40.8501C144.815 41.8806 144.537 42.8081 143.889 43.5294C143.241 44.2508 142.5 44.56 141.574 44.56C140.648 44.56 139.908 44.2508 139.259 43.5294ZM141.574 44.1477C142.315 44.1477 143.056 43.8386 143.519 43.2203C144.074 42.602 144.352 41.7776 144.352 40.8501C144.352 39.9227 144.074 39.0983 143.519 38.4799C142.963 37.8616 142.315 37.5525 141.574 37.5525C140.741 37.5525 140.093 37.8616 139.63 38.4799C139.074 39.0983 138.796 39.9227 138.796 40.8501C138.796 41.7776 139.074 42.602 139.63 43.2203C140.093 43.8386 140.741 44.1477 141.574 44.1477Z" fill="white"/>
<path d="M148.333 44.4569V37.2433H148.704L151.204 40.9531L153.796 37.2433H154.167V44.4569H153.704V37.9647L151.389 41.4684H151.111L148.704 37.9647V44.4569H148.333Z" fill="white"/>
<path d="M157.963 44.4569V37.2433H162.963V44.4569H162.5V37.6555H158.426V44.4569H157.963Z" fill="white"/>
<path d="M166.111 44.4569L169.074 37.2433H169.445L172.408 44.4569H171.945L171.111 42.2928H167.5L166.667 44.4569H166.111ZM167.5 41.8806H170.834L169.167 37.7586L167.5 41.8806Z" fill="white"/>
<path d="M175.463 44.4569V37.2433H175.926V40.3348H180.093V37.2433H180.555V44.4569H180.093V40.8501H175.926V44.4569H175.463Z" fill="white"/>
<path d="M184.352 44.4569V37.2433H184.815V43.6325L189.167 37.2433H189.537V44.4569H189.167V38.0677L184.722 44.4569H184.352Z" fill="white"/>
<path d="M193.333 44.4569V37.2433H193.796V43.6325L198.148 37.2433H198.519V44.4569H198.148V38.0677L193.796 44.4569H193.333ZM194.537 35.1823H194.908C194.908 35.8006 195.278 36.2128 196.019 36.2128C196.667 36.2128 197.037 35.8006 197.037 35.1823H197.408C197.408 36.0067 196.759 36.625 196.019 36.625C195.093 36.7281 194.537 36.1098 194.537 35.1823Z" fill="white"/>
<path fill-rule="evenodd" clip-rule="evenodd" d="M54.1667 0.248094V5.40063L40.7407 16.0149H40.6482L26.7593 5.19453L13.4259 16.0149L0 5.40063V0.248094L13.4259 10.8623L27.037 0.0419922L40.6482 10.8623L54.1667 0.248094Z" fill="white"/>
<path fill-rule="evenodd" clip-rule="evenodd" d="M54.1667 12.202V17.3545L40.7407 27.8657H40.6482L27.037 16.7362L13.4259 27.8657L0 17.3545V12.202L13.4259 22.7132L27.037 11.8928L40.6482 22.7132L54.1667 12.202Z" fill="white"/>
<path fill-rule="evenodd" clip-rule="evenodd" d="M54.1667 23.8468V28.8962L40.7407 39.5105H40.6482L27.037 28.381L13.4259 39.5105L0 28.8962V23.8468L13.4259 34.3579L27.037 23.5376L40.6482 34.3579L54.1667 23.8468Z" fill="white"/>
<path d="M98.1482 28.1749L89.4445 5.70977L80.7408 28.0718H77.963L69.2593 1.27859H73.2408L77.5926 15.0874C77.8704 16.0149 78.1482 16.9423 78.4259 17.9728C78.7037 19.0033 78.9815 19.9308 79.2593 20.8582L79.7222 22.5071L80.2778 20.8582C80.5556 19.9308 80.9259 19.0033 81.2037 18.0759C81.5741 17.1484 81.9445 16.1179 82.3148 15.1904L87.7778 1.17554H91.5741L96.8519 15.0874C97.2222 16.0149 97.5926 16.9423 97.963 17.8698C98.3334 18.7972 98.6111 19.7247 98.9815 20.6521L99.5371 22.404L100 20.6521C100.278 19.7247 100.463 18.7972 100.741 17.7667C101.019 16.8393 101.296 15.8088 101.667 14.8813L106.389 1.27859H110.278L100.833 28.1749H98.1482Z" fill="white"/>
<path d="M118.519 28.1749V24.1559H124.259V5.19453H118.519V1.27859H133.611V5.19453H127.87V24.1559H133.611V28.1749H118.519Z" fill="white"/>
<path d="M143.426 28.1749V25.1864L163.426 5.29758H144.537V1.27859H169.259V4.16402L149.167 24.1559H169.722V28.1749H143.426Z" fill="white"/>
<path d="M203.889 28.1749L200.463 21.4766H182.87L179.444 28.1749H175.741L189.444 1.27859H194.167L207.778 28.1749H203.889ZM191.204 4.78232C190.833 5.81283 190.463 6.63724 190.093 7.35859C189.722 8.183 189.259 9.00741 188.889 9.72876L184.444 18.4881H198.981L194.444 9.62571C194.074 8.8013 193.611 8.07995 193.241 7.25554C192.87 6.43114 192.5 5.60673 192.13 4.78232L191.667 3.64876L191.204 4.78232Z" fill="white"/>
<path d="M237.963 28.1749L230.093 17.7667H219.815V28.1749H216.204V1.27859H232.222C233.889 1.27859 235.37 1.6908 236.759 2.41215C238.148 3.13351 239.259 4.06097 240.092 5.29758C240.926 6.53419 241.296 7.87385 241.296 9.41961C241.296 10.5532 241.018 11.6867 240.463 12.7172C239.907 13.7477 239.167 14.6752 238.148 15.4996C237.222 16.324 236.018 16.8393 234.815 17.2515L234.074 17.4576L242.315 28.1749H237.963ZM219.722 14.7783H231.204C232.315 14.7783 233.333 14.5721 234.259 14.0569C235.185 13.5416 235.926 12.9233 236.574 12.0989C237.13 11.2745 237.5 10.3471 237.5 9.31656C237.5 8.28605 237.222 7.35859 236.574 6.63724C236.018 5.91588 235.185 5.29758 234.167 4.88537C233.241 4.47317 232.13 4.26707 231.018 4.26707H219.815V14.7783H219.722Z" fill="white"/>
<path d="M253.148 28.1749V1.27859H267.407C270.092 1.27859 272.407 1.6908 274.444 2.3091C276.481 3.03046 278.148 4.06097 279.444 5.29758C280.741 6.53419 281.759 7.9769 282.407 9.62571C283.055 11.2745 283.426 13.0264 283.426 14.7783C283.426 17.2515 282.87 19.5186 281.666 21.4766C280.463 23.5376 278.704 25.1864 276.296 26.3199C273.889 27.5565 270.926 28.1749 267.315 28.1749H253.148ZM256.852 25.1864H267.222C270.092 25.1864 272.407 24.7742 274.259 23.8467C276.111 22.9193 277.407 21.6827 278.333 20.0338C279.166 18.4881 279.629 16.7362 279.629 14.7783C279.629 12.9233 279.166 11.1715 278.333 9.62571C277.5 8.07995 276.111 6.74029 274.259 5.81283C272.407 4.88537 270.092 4.37012 267.315 4.37012H256.944V25.1864H256.852Z" fill="white"/>
</g>
<defs>
<clipPath id="clip0">
<rect width="283.426" height="44.518" fill="white" transform="translate(0 0.0419922)"/>
</clipPath>
</defs>
</svg>
